<svg width="104" height="105" viewBox="0 0 104 105" fill="none" xmlns="http://www.w3.org/2000/svg">
<rect width="104" height="105" rx="20" fill="url(#paint0_linear)"/>
<path d="M38 69V47.3509C38 45.1089 39.0739 43.0026 40.8883 41.6858L58.25 29.0846C60.7684 27.2568 64.191 27.3109 66.6504 29.2174L81.2887 40.5649C82.999 41.8907 84 43.9332 84 46.0972V69C84 72.866 80.866 76 77 76H45C41.134 76 38 72.866 38 69Z" fill="url(#paint1_linear)" fill-opacity="0.5"/>
<path d="M21 69V46.7744C21 44.4648 22.1393 42.3038 24.045 40.9988L40.4475 29.7666C42.8736 28.1053 46.0793 28.1372 48.4719 29.8465L64.0693 40.9901C65.9085 42.3041 67 44.4254 67 46.6858V69C67 72.866 63.866 76 60 76H28C24.134 76 21 72.866 21 69Z" fill="white"/>
<defs>
<linearGradient id="paint0_linear" x1="18.3566" y1="-14.6628" x2="85.1024" y2="113.267" gradientUnits="userSpaceOnUse">
<stop stop-color="#5C9DFF"/>
<stop offset="1" stop-color="#B88BFF"/>
</linearGradient>
<linearGradient id="paint1_linear" x1="61" y1="29.5" x2="61" y2="76" gradientUnits="userSpaceOnUse">
<stop stop-color="white"/>
<stop offset="1" stop-color="white" stop-opacity="0.35"/>
</linearGradient>
</defs>
</svg>
