<svg width="104" height="105" viewBox="0 0 104 105" fill="none" xmlns="http://www.w3.org/2000/svg">
<rect width="104" height="105" rx="20" fill="url(#paint0_linear)"/>
<path d="M24 69V46.7744C24 44.4648 25.1393 42.3038 27.045 40.9988L43.4475 29.7666C45.8736 28.1053 49.0793 28.1372 51.4719 29.8465L67.0693 40.9901C68.9085 42.3041 70 44.4254 70 46.6858V69C70 72.866 66.866 76 63 76H31C27.134 76 24 72.866 24 69Z" fill="white"/>
<path d="M29 69V47.1756C29 44.8484 30.1566 42.6733 32.0862 41.372L49.3419 29.7351C51.7778 28.0924 54.9802 28.1456 57.3602 29.8683L71.1045 39.8171C72.9231 41.1336 74 43.2424 74 45.4875V69C74 72.866 70.866 76 67 76H36C32.134 76 29 72.866 29 69Z" fill="white" fill-opacity="0.6"/>
<path d="M34 69V47.1989C34 44.8588 35.1693 42.6735 37.1162 41.3751L54.5501 29.7487C57.0199 28.1016 60.26 28.1915 62.6346 29.9729L75.2007 39.4C76.9629 40.722 78 42.7965 78 44.9995V69C78 72.866 74.866 76 71 76H41C37.134 76 34 72.866 34 69Z" fill="white" fill-opacity="0.4"/>
<defs>
<linearGradient id="paint0_linear" x1="18.3566" y1="-14.6628" x2="85.1024" y2="113.267" gradientUnits="userSpaceOnUse">
<stop stop-color="#5C9DFF"/>
<stop offset="1" stop-color="#B88BFF"/>
</linearGradient>
</defs>
</svg>
